# xmcd
#
# Track frame offsets: 
#        150
#        15763
#        34233
#        49972
#        63514
#        80983
#        89875
#        105729
#        122116
#        133129
#        144551
#        161502
#        172271
#        191346
#        211712
#        227552
#        241443
#        256609
#        272279
#        285862
#
# Disc length: 3978 seconds
#
# Revision: 0
# Processed by: cddbd v1.5.2PL0 Copyright (c) Steve Scherf et al.
# Submitted via: ExactAudioCopy v1.1
#
DISCID=180f8814
DTITLE=Various Artist - Classic Country CD3
DYEAR=2016
DGENRE=Country
TTITLE0=Kenny Rogers - The Gambler
TTITLE1=Willie Nelson - Whiskey River
TTITLE2=The Band - The Night They Drove Old Dixie Down
TTITLE3=Brett Eldridge - Don't Ya
TTITLE4=Lucinda Williams - Are You Alright
TTITLE5=Patsy Cline - Walkin' After Midnight
TTITLE6=Randy Travis - Forever And Ever Amen
TTITLE7=Gram Parsons - Love Hurts
TTITLE8=Roger Miller - King Of The Road
TTITLE9=Travis Tritt - Here's A Quarter (Call Someone Who Cares)
TTITLE10=Tracy Lawrence - Paint Me A Birmingham
TTITLE11=Faron Young - Hello Walls
TTITLE12=John Prine - Sam Stone
TTITLE13=Squeeze - Labelled With Love
TTITLE14=Billie Jo Spears - Blanket On The Ground
TTITLE15=Tom Paxton - The Last Thing On My Mind
TTITLE16=The Byrds - Cowgirl In The Sand
TTITLE17=Maria Muldaur - My Tennessee Mountain Home
TTITLE18=The Pointer Sisters - Fairytale
TTITLE19=Hank Williams - I'm So Lonesome I Could Cry
EXTD=
EXTT0=
EXTT1=
EXTT2=
EXTT3=
EXTT4=
EXTT5=
EXTT6=
EXTT7=
EXTT8=
EXTT9=
EXTT10=
EXTT11=
EXTT12=
EXTT13=
EXTT14=
EXTT15=
EXTT16=
EXTT17=
EXTT18=
EXTT19=
PLAYORDER=
